<?xml version="1.0" standalone="no"?>
<!DOCTYPE svg PUBLIC "-//W3C//DTD SVG 20010904//EN"
 "http://www.w3.org/TR/2001/REC-SVG-20010904/DTD/svg10.dtd">
<svg version="1.0" xmlns="http://www.w3.org/2000/svg"
 width="160.000000pt" height="86.000000pt" viewBox="0 0 160.000000 86.000000"
 preserveAspectRatio="xMidYMid meet">

<g transform="translate(0.000000,86.000000) scale(0.100000,-0.100000)"
fill="#000000" stroke="none">
<path d="M0 531 l0 -268 53 -7 c28 -3 72 -6 96 -6 43 0 43 0 37 31 -3 17 -6
123 -6 235 l0 204 -65 0 -65 0 0 -100 0 -100 25 0 26 0 -7 75 -7 75 25 0 c24
0 25 -2 31 -97 4 -54 7 -117 7 -140 l0 -43 -49 0 c-28 0 -52 3 -55 8 -2 4 -8
87 -12 184 l-7 176 64 4 c76 5 109 -4 109 -31 0 -10 7 -24 15 -31 14 -12 14
-15 -2 -32 -15 -16 -15 -23 -4 -54 10 -28 10 -42 1 -65 -7 -16 -11 -31 -9 -33
2 -1 25 -17 51 -36 l47 -33 51 33 c54 35 55 36 40 75 -7 20 -6 34 6 56 14 29
14 32 -2 50 -15 17 -16 24 -6 39 7 11 12 26 12 33 0 22 41 33 108 29 l62 -4
-2 -181 -3 -182 -59 -3 -59 -3 7 32 c3 17 6 80 6 140 0 108 0 109 24 109 21 0
24 -5 28 -45 2 -25 0 -45 -4 -45 -5 0 -8 -13 -8 -30 0 -25 4 -30 25 -30 l25 0
0 100 0 100 -58 0 -59 0 -6 -107 c-4 -58 -7 -164 -7 -235 l0 -128 34 0 c18 0
61 3 95 6 l61 7 0 268 0 269 -95 0 c-93 0 -96 -1 -144 -35 -52 -38 -59 -56
-62 -160 -1 -44 -2 -46 -9 -20 -4 17 -8 55 -9 86 l-1 56 -55 37 c-53 35 -58
36 -145 36 l-90 0 0 -269z"/>
<path d="M1056 734 c-18 -17 -21 -56 -6 -84 19 -35 88 -33 112 4 16 23 8 75
-11 86 -29 15 -77 12 -95 -6z"/>
<path d="M709 562 c-60 -31 -67 -46 -41 -80 l18 -24 35 21 c45 28 77 27 88 -1
8 -22 5 -24 -48 -34 -67 -12 -93 -25 -120 -60 -29 -37 -26 -70 8 -105 33 -32
81 -38 140 -18 24 9 35 9 44 0 12 -12 87 -15 125 -5 17 5 22 14 22 40 0 29 -3
34 -23 34 -23 0 -24 2 -19 74 8 132 -28 186 -123 186 -38 0 -67 -8 -106 -28z
m111 -197 c0 -18 -7 -28 -26 -35 -50 -19 -69 30 -20 50 35 15 46 11 46 -15z"/>
<path d="M1075 583 c-71 -9 -75 -11 -75 -48 0 -31 3 -35 25 -35 25 0 25 -1 25
-85 0 -82 -1 -86 -25 -95 -18 -7 -25 -17 -25 -35 l0 -25 105 0 105 0 0 30 c0
23 -4 30 -20 30 -19 0 -20 7 -20 135 l0 135 -32 -1 c-18 -1 -46 -4 -63 -6z"/>
<path d="M1319 562 c-60 -31 -67 -46 -41 -80 l18 -24 35 21 c45 28 77 27 88
-1 8 -22 5 -24 -48 -34 -67 -12 -93 -25 -120 -60 -29 -37 -26 -70 8 -105 33
-32 81 -38 140 -18 24 9 35 9 44 0 12 -12 87 -15 125 -5 17 5 22 14 22 40 0
29 -3 34 -23 34 -23 0 -24 2 -19 74 8 132 -28 186 -123 186 -38 0 -67 -8 -106
-28z m111 -197 c0 -18 -7 -28 -26 -35 -50 -19 -69 30 -20 50 35 15 46 11 46
-15z"/>
</g>
</svg>
